<svg xmlns="http://www.w3.org/2000/svg" viewBox="0 0 800 200" preserveAspectRatio="xMidYMid meet">
  <rect width="100%" height="100%" fill="none"/>
  <!-- Hello, -->
  <path d="M50 140V60h12v30h40V60h12v80h-12V102h-40v38H50z" fill="#000000"/>
  <path d="M120 100c0-15 10-27 25-27s25 12 25 27-10 27-25 27-25-12-25-27zm12 0c0 9 6 15 13 15 7 0 13-6 13-15s-6-15-13-15c-7 0-13 6-13 15z" fill="#000000"/>
  <path d="M180 140V73h12v10c3-7 10-12 18-12 13 0 23 12 23 27s-10 27-23 27c-8 0-15-5-18-12v27h-12zm30-53c-7 0-13 6-13 15s6 15 13 15 13-6 13-15-6-15-13-15z" fill="#000000"/>
  <path d="M250 140V80h12v60h-12z" fill="#000000"/>
  <circle cx="275" cy="135" r="5" fill="#000000"/>
  <!-- I/O symbol -->
  <line x1="310" y1="70" x2="310" y2="130" stroke="#000000" stroke-width="6"/>
  <line x1="316" y1="100" x2="380" y2="100" stroke="#1E90FF" stroke-width="6"/>
  <polygon points="380,90 400,100 380,110" fill="#1E90FF"/>
  <circle cx="440" cy="100" r="30" stroke="#000000" stroke-width="6" fill="none"/>
  <!-- idea -->
  <path d="M490 140V80h12v60h-12z" fill="#000000"/>
  <circle cx="515" cy="75" r="5" fill="#000000"/>
  <path d="M530 100c0-15 10-27 25-27s25 12 25 27-10 27-25 27-25-12-25-27zm12 0c0 9 6 15 13 15 7 0 13-6 13-15s-6-15-13-15c-7 0-13 6-13 15z" fill="#000000"/>
  <path d="M590 140V80h12v10c3-7 10-12 18-12 13 0 23 12 23 27s-10 27-23 27c-8 0-15-5-18-12v27h-12zm30-53c-7 0-13 6-13 15s6 15 13 15 13-6 13-15-6-15-13-15z" fill="#000000"/>
</svg>
